<svg xmlns="http://www.w3.org/2000/svg" xmlns:xlink="http://www.w3.org/1999/xlink" width="246px" height="246px" viewBox="0 0 246 246"><title>Group 13</title><desc>Created with Sketch.</desc><g id="Page-1" stroke="none" stroke-width="1" fill="none" fill-rule="evenodd"><g id="Money-Back-Guarantee" transform="translate(-181.000000, -406.000000)"><g id="Group" transform="translate(180.000000, 406.000000)"><g id="Group-13"><circle id="Oval" fill="#006CBF" cx="124" cy="123" r="123"></circle><circle id="Oval-Copy" stroke="#FFFFFF" stroke-width="4" cx="124" cy="123" r="115"></circle><circle id="Oval-Copy-2" fill="#F9F9F9" cx="124" cy="123" r="109"></circle><circle id="Oval-Copy-3" stroke="#006CBF" stroke-width="2" cx="123.5" cy="122.5" r="70.5"></circle><circle id="Oval-Copy-4" stroke="#006CBF" stroke-width="2.16000009" cx="123" cy="122" r="64.92"></circle><path d="M6.88502266,93 L241.885023,93 C243.916113,100.914704 244.931658,110.325384 244.931658,121.23204 C244.931658,132.138696 243.58278,143.061349 240.885023,154 L6.88502266,154 L3,122.283603 L6.88502266,93 Z" id="Rectangle" fill="#006CBF" transform="translate(123.965829, 123.500000) rotate(-6.000000) translate(-123.965829, -123.500000) "></path><g id="Group-10-Copy" transform="translate(28.000000, 24.000000)" fill="#006CBF" fill-rule="nonzero"><polygon id="Path" transform="translate(12.906000, 59.204000) rotate(-63.000000) translate(-12.906000, -59.204000) " points="6.12 68.408 6.12 53.12 6.172 53.12 11.762 68.408 14.05 68.408 19.64 53.12 19.692 53.12 19.692 68.408 22.812 68.408 22.812 50 17.872 50 12.906 62.896 7.992 50 3 50 3 68.408"></polygon><path d="M25.2265022,29.3163467 C26.3953798,28.990458 27.6190351,28.9163582 28.8974681,29.0940472 C30.1759012,29.2717362 31.4530897,29.728914 32.7290338,30.4655807 C33.9749557,31.184914 34.986961,32.0494029 35.7650496,33.0590472 C36.5431382,34.0686915 37.0832879,35.1611247 37.3854989,36.3363467 C37.6877098,37.5115687 37.7462179,38.7362296 37.5610234,40.0103293 C37.3758288,41.284429 36.9310704,42.5487732 36.2267482,43.8033617 C35.5160815,45.0342725 34.6650177,46.049025 33.6735567,46.8476191 C32.6820957,47.6462133 31.6078459,48.2068686 30.4508072,48.5295851 C29.2937685,48.8523015 28.0835382,48.9291486 26.8201162,48.7601262 C25.5566943,48.5911039 24.3020224,48.1469261 23.0561005,47.4275927 C21.7801564,46.6909261 20.7418817,45.8112706 19.9412764,44.7886262 C19.1406712,43.7659819 18.5870964,42.6708015 18.2805522,41.5030851 C17.9740079,40.3353686 17.918672,39.1225466 18.1145443,37.8646191 C18.3104166,36.6066916 18.7636861,35.3622725 19.4743528,34.1313617 C20.178675,32.8767732 21.0212278,31.8420957 22.002011,31.0273293 C22.9827942,30.2125629 24.0576246,29.6422354 25.2265022,29.3163467 Z M28.4663178,32.4928215 C27.6241402,32.3568492 26.8054432,32.3795407 26.0102266,32.5608961 C25.2150101,32.7422516 24.4760436,33.0861792 23.793327,33.592679 C23.1106104,34.0991788 22.5309188,34.7652342 22.0542521,35.5908451 C21.5775854,36.4164559 21.2927771,37.2477585 21.199827,38.0847528 C21.1068769,38.921747 21.1806768,39.7299219 21.4212266,40.5092773 C21.6617765,41.2886327 22.0514736,42.008991 22.5903178,42.670352 C23.1291621,43.331713 23.7963785,43.8920602 24.5919672,44.3513936 C25.4476003,44.8453936 26.3115168,45.1690464 27.1837166,45.322352 C28.0559164,45.4756576 28.8933773,45.4637994 29.6960994,45.2867773 C30.4988215,45.1097552 31.2431269,44.7739137 31.9290157,44.2792528 C32.6149045,43.7845918 33.1961822,43.1244559 33.6728489,42.2988451 C34.1495156,41.4732342 34.4327378,40.6360122 34.5225157,39.787179 C34.6122936,38.9383459 34.5331548,38.1220849 34.2850994,37.3383961 C34.037044,36.5547074 33.628583,35.8235158 33.0597166,35.1448215 C32.4908501,34.4661271 31.7786003,33.8797799 30.9229672,33.3857799 C30.1273785,32.9264466 29.3084954,32.6287937 28.4663178,32.4928215 Z" id="Combined-Shape"></path><polygon id="Path" transform="translate(45.294000, 23.204000) rotate(-32.000000) translate(-45.294000, -23.204000) " points="40.276 32.408 40.276 18.29 40.328 18.29 49.428 32.408 53.588 32.408 53.588 14 50.312 14 50.312 27.676 50.26 27.676 41.342 14 37 14 37 32.408"></polygon><polygon id="Path" transform="translate(65.331000, 14.204000) rotate(-18.000000) translate(-65.331000, -14.204000) " points="71.662 23.408 71.662 20.444 62.276 20.444 62.276 15.452 70.726 15.452 70.726 12.488 62.276 12.488 62.276 7.964 71.194 7.964 71.194 5 59 5 59 23.408"></polygon><polygon id="Path" transform="translate(84.554000, 10.204000) rotate(-7.000000) translate(-84.554000, -10.204000) " points="86.192 19.408 86.192 11.53 93.108 1 89.208 1 84.632 8.332 80.108 1 76 1 82.916 11.53 82.916 19.408"></polygon><path d="M116.176,2 L116.59096,2.00988 C117.142853,2.03622667 117.6892,2.11526667 118.23,2.247 C118.906,2.41166667 119.508333,2.68033333 120.037,3.053 C120.565667,3.42566667 120.994667,3.90666667 121.324,4.496 C121.653333,5.08533333 121.818,5.796 121.818,6.628 C121.818,7.668 121.523333,8.526 120.934,9.202 C120.344667,9.878 119.573333,10.3633333 118.62,10.658 L118.62,10.658 L118.62,10.71 L118.90275,10.75225 C119.368583,10.8353056 119.807333,10.9815556 120.219,11.191 C120.713,11.4423333 121.133333,11.763 121.48,12.153 C121.826667,12.543 122.099667,12.9936667 122.299,13.505 C122.498333,14.0163333 122.598,14.5666667 122.598,15.156 C122.598,16.1613333 122.398667,16.9976667 122,17.665 C121.601333,18.3323333 121.077,18.8696667 120.427,19.277 C119.777,19.6843333 119.031667,19.9746667 118.191,20.148 C117.350333,20.3213333 116.496667,20.408 115.63,20.408 L115.63,20.408 L109,20.408 L109,2 L116.176,2 Z M115.422,12.296 L112.276,12.296 L112.276,17.6 L115.292,17.6 C115.708,17.6 116.154333,17.574 116.631,17.522 C117.107667,17.47 117.545333,17.3486667 117.944,17.158 C118.342667,16.9673333 118.672,16.6943333 118.932,16.339 C119.192,15.9836667 119.322,15.5026667 119.322,14.896 C119.322,13.9253333 119.005667,13.2493333 118.373,12.868 C117.740333,12.4866667 116.756667,12.296 115.422,12.296 L115.422,12.296 Z M114.98,4.808 L112.276,4.808 L112.276,9.488 L115.266,9.488 C116.358,9.488 117.177,9.27566667 117.723,8.851 C118.269,8.42633333 118.542,7.86733333 118.542,7.174 C118.542,6.37666667 118.260333,5.783 117.697,5.393 C117.133667,5.003 116.228,4.808 114.98,4.808 L114.98,4.808 Z" id="Combined-Shape" transform="translate(115.799000, 11.204000) rotate(10.000000) translate(-115.799000, -11.204000) "></path><path d="M137.842,9 L145.772,27.408 L142.028,27.408 L140.312,23.196 L132.33,23.196 L130.666,27.408 L127,27.408 L135.008,9 L137.842,9 Z M136.334,12.9 L133.448,20.388 L139.168,20.388 L136.334,12.9 Z" id="Combined-Shape" transform="translate(136.386000, 18.204000) rotate(28.000000) translate(-136.386000, -18.204000) "></path><path d="M156.724,39.344 C158.076,39.344 159.35,39.084 160.546,38.564 C161.742,38.044 162.756,37.212 163.588,36.068 L163.588,36.068 L160.884,34.144 C160.277333,34.924 159.623,35.4916667 158.921,35.847 C158.219,36.2023333 157.495333,36.38 156.75,36.38 C155.796667,36.38 154.934333,36.2066667 154.163,35.86 C153.391667,35.5133333 152.728667,35.0366667 152.174,34.43 C151.619333,33.8233333 151.190333,33.104 150.887,32.272 C150.583667,31.44 150.432,30.53 150.432,29.542 C150.432,28.6233333 150.583667,27.7653333 150.887,26.968 C151.190333,26.1706667 151.619333,25.473 152.174,24.875 C152.728667,24.277 153.391667,23.809 154.163,23.471 C154.934333,23.133 155.796667,22.964 156.75,22.964 C157.391333,22.964 158.028333,23.0853333 158.661,23.328 C159.293667,23.5706667 159.948,24.056 160.624,24.784 L160.624,24.784 L163.172,22.912 C162.253333,21.8546667 161.261,21.105 160.195,20.663 C159.129,20.221 157.972,20 156.724,20 C155.302667,20 153.998333,20.2296667 152.811,20.689 C151.623667,21.1483333 150.601,21.8026667 149.743,22.652 C148.885,23.5013333 148.213333,24.5283333 147.728,25.733 C147.242667,26.9376667 147,28.2766667 147,29.75 C147,31.1886667 147.242667,32.4973333 147.728,33.676 C148.213333,34.8546667 148.885,35.8643333 149.743,36.705 C150.601,37.5456667 151.623667,38.1956667 152.811,38.655 C153.998333,39.1143333 155.302667,39.344 156.724,39.344 Z" id="Path" transform="translate(155.294000, 29.672000) rotate(40.000000) translate(-155.294000, -29.672000) "></path><polygon id="Path" transform="translate(172.021000, 46.204000) rotate(51.000000) translate(-172.021000, -46.204000) " points="167.276 55.408 167.276 46.36 167.458 46.36 175.44 55.408 180.042 55.408 170.864 45.502 179.47 37 175.05 37 167.432 44.8 167.276 44.8 167.276 37 164 37 164 55.408"></polygon></g><g id="Group-11" transform="translate(124.500000, 191.500000) rotate(1.000000) translate(-124.500000, -191.500000) translate(37.000000, 161.000000)" fill="#006CBF" fill-rule="nonzero"><path d="M30.41,43.876 C31.4673333,43.876 32.4466667,43.707 33.348,43.369 C34.2493333,43.031 35.0293333,42.55 35.688,41.926 C36.3466667,41.302 36.8666667,40.5436667 37.248,39.651 C37.6293333,38.7583333 37.82,37.7573333 37.82,36.648 L37.82,36.648 L37.82,25 L34.544,25 L34.544,36.544 C34.544,36.9946667 34.4746667,37.467 34.336,37.961 C34.1973333,38.455 33.9676667,38.91 33.647,39.326 C33.3263333,39.742 32.9016667,40.0843333 32.373,40.353 C31.8443333,40.6216667 31.19,40.756 30.41,40.756 C29.63,40.756 28.9756667,40.6216667 28.447,40.353 C27.9183333,40.0843333 27.4936667,39.742 27.173,39.326 C26.8523333,38.91 26.6226667,38.455 26.484,37.961 C26.3453333,37.467 26.276,36.9946667 26.276,36.544 L26.276,36.544 L26.276,25 L23,25 L23,36.648 C23,37.7573333 23.1863333,38.7583333 23.559,39.651 C23.9316667,40.5436667 24.4516667,41.302 25.119,41.926 C25.7863333,42.55 26.5706667,43.031 27.472,43.369 C28.3733333,43.707 29.3526667,43.876 30.41,43.876 Z" id="Path" transform="translate(30.410000, 34.438000) rotate(38.000000) translate(-30.410000, -34.438000) "></path><path d="M14.724,27.344 C17.532,27.344 20.0713333,26.7373333 22.342,25.524 L22.342,25.524 L22.342,16.112 L15.296,16.112 L15.296,19.076 L19.066,19.076 L19.066,23.418 C18.494,23.7473333 17.8396667,23.99 17.103,24.146 C16.3663333,24.302 15.582,24.38 14.75,24.38 C13.7966667,24.38 12.9343333,24.2066667 12.163,23.86 C11.3916667,23.5133333 10.7286667,23.0366667 10.174,22.43 C9.61933333,21.8233333 9.19033333,21.104 8.887,20.272 C8.58366667,19.44 8.432,18.53 8.432,17.542 C8.432,16.6233333 8.58366667,15.7653333 8.887,14.968 C9.19033333,14.1706667 9.61933333,13.473 10.174,12.875 C10.7286667,12.277 11.3916667,11.809 12.163,11.471 C12.9343333,11.133 13.7966667,10.964 14.75,10.964 C15.686,10.964 16.5743333,11.12 17.415,11.432 C18.2556667,11.744 18.9706667,12.186 19.56,12.758 L19.56,12.758 L21.978,10.314 C21.0073333,9.44733333 19.9066667,8.845 18.676,8.507 C17.4453333,8.169 16.128,8 14.724,8 C13.3026667,8 11.9983333,8.22966667 10.811,8.689 C9.62366667,9.14833333 8.601,9.80266667 7.743,10.652 C6.885,11.5013333 6.21333333,12.5283333 5.728,13.733 C5.24266667,14.9376667 5,16.2766667 5,17.75 C5,19.1886667 5.24266667,20.4973333 5.728,21.676 C6.21333333,22.8546667 6.885,23.8643333 7.743,24.705 C8.601,25.5456667 9.62366667,26.1956667 10.811,26.655 C11.9983333,27.1143333 13.3026667,27.344 14.724,27.344 Z" id="Path" transform="translate(13.671000, 17.672000) rotate(47.000000) translate(-13.671000, -17.672000) "></path><path d="M50.842,34 L58.772,52.408 L55.028,52.408 L53.312,48.196 L45.33,48.196 L43.666,52.408 L40,52.408 L48.008,34 L50.842,34 Z M49.334,37.9 L46.448,45.388 L52.168,45.388 L49.334,37.9 Z" id="Combined-Shape" transform="translate(49.386000, 43.204000) rotate(19.000000) translate(-49.386000, -43.204000) "></path><path d="M70.396,41 L70.92276,41.00988 C71.6202533,41.0362267 72.2983333,41.1152667 72.957,41.247 C73.7803333,41.4116667 74.5126667,41.6933333 75.154,42.092 C75.7953333,42.4906667 76.3066667,43.028 76.688,43.704 C77.0693333,44.38 77.26,45.238 77.26,46.278 C77.26,47.6126667 76.8916667,48.7306667 76.155,49.632 C75.4183333,50.5333333 74.3653333,51.0793333 72.996,51.27 L72.996,51.27 L77.884,59.408 L73.932,59.408 L69.668,51.608 L67.276,51.608 L67.276,59.408 L64,59.408 L64,41 L70.396,41 Z M70.11,43.808 L67.276,43.808 L67.276,48.8 L69.824,48.8 C70.292,48.8 70.76,48.7783333 71.228,48.735 C71.696,48.6916667 72.125,48.5876667 72.515,48.423 C72.905,48.2583333 73.2213333,48.007 73.464,47.669 C73.7066667,47.331 73.828,46.8586667 73.828,46.252 C73.828,45.7146667 73.7153333,45.2813333 73.49,44.952 C73.2646667,44.6226667 72.97,44.3756667 72.606,44.211 C72.242,44.0463333 71.839,43.938 71.397,43.886 C70.955,43.834 70.526,43.808 70.11,43.808 L70.11,43.808 Z" id="Combined-Shape" transform="translate(70.942000, 50.204000) rotate(11.000000) translate(-70.942000, -50.204000) "></path><path d="M91.842,42 L99.772,60.408 L96.028,60.408 L94.312,56.196 L86.33,56.196 L84.666,60.408 L81,60.408 L89.008,42 L91.842,42 Z M90.334,45.9 L87.448,53.388 L93.168,53.388 L90.334,45.9 Z" id="Combined-Shape" transform="translate(90.386000, 51.204000) rotate(-1.000000) translate(-90.386000, -51.204000) "></path><polygon id="Path" transform="translate(113.294000, 48.204000) rotate(-17.000000) translate(-113.294000, -48.204000) " points="108.276 57.408 108.276 43.29 108.328 43.29 117.428 57.408 121.588 57.408 121.588 39 118.312 39 118.312 52.676 118.26 52.676 109.342 39 105 39 105 57.408"></polygon><polygon id="Path" transform="translate(133.280000, 39.204000) rotate(-35.000000) translate(-133.280000, -39.204000) " points="134.918 48.408 134.918 32.964 140.56 32.964 140.56 30 126 30 126 32.964 131.642 32.964 131.642 48.408"></polygon><polygon id="Path" transform="translate(150.331000, 26.204000) rotate(-46.000000) translate(-150.331000, -26.204000) " points="156.662 35.408 156.662 32.444 147.276 32.444 147.276 27.452 155.726 27.452 155.726 24.488 147.276 24.488 147.276 19.964 156.194 19.964 156.194 17 144 17 144 35.408"></polygon><polygon id="Path-Copy" transform="translate(163.331000, 11.204000) rotate(-57.000000) translate(-163.331000, -11.204000) " points="169.662 20.408 169.662 17.444 160.276 17.444 160.276 12.452 168.726 12.452 168.726 9.488 160.276 9.488 160.276 4.964 169.194 4.964 169.194 2 157 2 157 20.408"></polygon></g><polygon id="Star" fill="#006CBF" points="97 85 92.297718 87.472136 93.1957739 82.236068 89.3915479 78.527864 94.648859 77.763932 97 73 99.351141 77.763932 104.608452 78.527864 100.804226 82.236068 101.702282 87.472136"></polygon><polygon id="Star-Copy" fill="#006CBF" points="146 170 141.297718 172.472136 142.195774 167.236068 138.391548 163.527864 143.648859 162.763932 146 158 148.351141 162.763932 153.608452 163.527864 149.804226 167.236068 150.702282 172.472136"></polygon><text id="100%" transform="translate(85.000000, 129.500000) rotate(-6.000000) translate(-85.000000, -129.500000) " font-family="Avenir-Heavy, Avenir" font-size="46" font-weight="600" fill="#F9F9F9"><tspan x="23.291" y="144">100%</tspan></text><text id="Risk-Free" transform="translate(185.500000, 116.000000) rotate(-6.000000) translate(-185.500000, -116.000000) " font-family="SFProDisplay-Bold, SF Pro Display" font-size="20.8867925" font-weight="bold" fill="#F9F9F9"><tspan x="165" y="111">Risk</tspan><tspan x="165" y="135.754717">Free</tspan></text></g></g></g></g></svg>